<svg width="472" height="472" viewBox="0 0 472 472" fill="none" xmlns="http://www.w3.org/2000/svg">
<g clip-path="url(#clip0_1_27)">
<path d="M293.916 472H178.096C79.8923 472 0 392.108 0 293.916V178.096C0 79.8923 79.8923 0 178.084 0H293.904C392.095 0 471.988 79.8923 471.988 178.084V293.904C471.988 392.095 392.095 471.988 293.904 471.988L293.916 472ZM178.084 30.5399C96.7259 30.5399 30.5399 96.7259 30.5399 178.084V293.904C30.5399 375.262 96.7259 441.448 178.084 441.448H293.904C375.262 441.448 441.448 375.262 441.448 293.904V178.084C441.448 96.7259 375.262 30.5399 293.904 30.5399H178.084Z" fill="url(#paint0_linear_1_27)"/>
<path d="M273.381 162.374L270.877 159.87C269.582 158.575 267.823 157.842 265.99 157.842H206.474C204.642 157.842 202.883 158.575 201.588 159.87L199.096 162.374L131.163 230.295C128.463 232.995 128.463 237.368 131.163 240.056L158.539 267.432C161.238 270.131 165.612 270.131 168.299 267.432L203.054 232.677C221.365 214.366 251.062 214.366 269.386 232.677L303.689 266.98C306.388 269.679 310.762 269.679 313.461 266.98L340.825 239.604C343.525 236.904 343.525 232.531 340.825 229.843L273.369 162.387L273.381 162.374Z" fill="url(#paint1_linear_1_27)"/>
<path d="M166.697 292.775L211.269 248.203C224.917 234.555 247.073 234.563 260.712 248.203L305.284 292.775C267.035 331.024 204.928 331.024 166.679 292.775H166.697Z" fill="url(#paint2_linear_1_27)"/>
</g>
<defs>
<linearGradient id="paint0_linear_1_27" x1="54" y1="-26" x2="580" y2="456" gradientUnits="userSpaceOnUse">
<stop stop-color="#58009A"/>
<stop offset="1" stop-color="#FCA311"/>
</linearGradient>
<linearGradient id="paint1_linear_1_27" x1="54" y1="-26" x2="580" y2="456" gradientUnits="userSpaceOnUse">
<stop stop-color="#58009A"/>
<stop offset="1" stop-color="#FCA311"/>
</linearGradient>
<linearGradient id="paint2_linear_1_27" x1="54" y1="-26" x2="580" y2="456" gradientUnits="userSpaceOnUse">
<stop stop-color="#58009A"/>
<stop offset="1" stop-color="#FCA311"/>
</linearGradient>
<clipPath id="clip0_1_27">
<rect width="472" height="472" fill="white"/>
</clipPath>
</defs>
</svg>
